<?xml version="1.0" encoding="utf-8"?>
<!-- Generator: Adobe Illustrator 21.0.2, SVG Export Plug-In . SVG Version: 6.00 Build 0)  -->
<svg version="1.1" id="Layer_1" xmlns="http://www.w3.org/2000/svg" xmlns:xlink="http://www.w3.org/1999/xlink" x="0px" y="0px"
	 width="2272px" height="1872px" viewBox="0 0 2272 1872" enable-background="new 0 0 2272 1872" xml:space="preserve">
<g>
	<linearGradient id="SVGID_1_" gradientUnits="userSpaceOnUse" x1="655.8718" y1="413.7351" x2="655.8718" y2="373">
		<stop  offset="0" style="stop-color:#231F20"/>
		<stop  offset="0.1898" style="stop-color:#D5D5D6"/>
		<stop  offset="0.4953" style="stop-color:#E6E7E8"/>
		<stop  offset="1" style="stop-color:#808285"/>
	</linearGradient>
	<rect x="630.6" y="373" fill="url(#SVGID_1_)" width="50.5" height="40.7"/>
	<linearGradient id="SVGID_2_" gradientUnits="userSpaceOnUse" x1="102.9952" y1="393.3675" x2="649.7704" y2="393.3675">
		<stop  offset="0" style="stop-color:#6D6E71"/>
		<stop  offset="1" style="stop-color:#000000"/>
	</linearGradient>
	<circle fill="url(#SVGID_2_)" cx="376.4" cy="393.4" r="273.4"/>
	<radialGradient id="SVGID_3_" cx="376.3828" cy="393.3675" r="264.2592" gradientUnits="userSpaceOnUse">
		<stop  offset="0" style="stop-color:#6D6E71"/>
		<stop  offset="1" style="stop-color:#000000"/>
	</radialGradient>
	<circle fill="url(#SVGID_3_)" cx="376.4" cy="393.4" r="264.3"/>
	<linearGradient id="SVGID_4_" gradientUnits="userSpaceOnUse" x1="568.1673" y1="393.3675" x2="184.5984" y2="393.3675">
		<stop  offset="0" style="stop-color:#6D6E71"/>
		<stop  offset="1" style="stop-color:#000000;stop-opacity:0"/>
	</linearGradient>
	<circle fill="url(#SVGID_4_)" cx="376.4" cy="393.4" r="191.8"/>
	<linearGradient id="SVGID_5_" gradientUnits="userSpaceOnUse" x1="189.5234" y1="393.3675" x2="563.2423" y2="393.3675">
		<stop  offset="0" style="stop-color:#414042"/>
		<stop  offset="1" style="stop-color:#232323"/>
	</linearGradient>
	<circle fill="url(#SVGID_5_)" cx="376.4" cy="393.4" r="186.9"/>
	<linearGradient id="SVGID_6_" gradientUnits="userSpaceOnUse" x1="875.9528" y1="345.9096" x2="875.9528" y2="440.8254">
		<stop  offset="6.967749e-02" style="stop-color:#231F20"/>
		<stop  offset="0.3849" style="stop-color:#4A494B"/>
		<stop  offset="1" style="stop-color:#000000"/>
	</linearGradient>
	<path fill="url(#SVGID_6_)" d="M1020.8,346l-330.7,15.1c-5,0.2-9,4.4-9,9.4v45.8c0,5,4,9.2,9,9.4l330.7,15.1
		c27.2,1.5,50-20.2,50-47.4v0C1070.8,366.1,1047.9,344.5,1020.8,346z M1024.7,419.4c-14.4,0-26.1-11.7-26.1-26.1
		c0-14.4,11.7-26.1,26.1-26.1c14.4,0,26.1,11.7,26.1,26.1C1050.7,407.8,1039.1,419.4,1024.7,419.4z"/>
	<linearGradient id="SVGID_7_" gradientUnits="userSpaceOnUse" x1="1024.6675" y1="363.6559" x2="1024.6675" y2="423.0792">
		<stop  offset="6.967749e-02" style="stop-color:#231F20"/>
		<stop  offset="0.3849" style="stop-color:#4A494B"/>
		<stop  offset="1" style="stop-color:#000000"/>
	</linearGradient>
	<path fill="url(#SVGID_7_)" d="M1024.7,363.7c-16.4,0-29.7,13.3-29.7,29.7c0,16.4,13.3,29.7,29.7,29.7c16.4,0,29.7-13.3,29.7-29.7
		C1054.4,377,1041.1,363.7,1024.7,363.7z M1024.7,419.4c-14.4,0-26.1-11.7-26.1-26.1c0-14.4,11.7-26.1,26.1-26.1
		c14.4,0,26.1,11.7,26.1,26.1C1050.7,407.8,1039.1,419.4,1024.7,419.4z"/>
	<path fill="#FFFFFF" d="M492.3,396.7c0,55.4-44.9,100.3-100.3,100.3s-100.3-44.9-100.3-100.3c0-22.7,19.9-33.9,32.7-50.8
		c18.3-24.2,35-49.6,67.7-49.6C447.4,296.3,492.3,341.3,492.3,396.7z"/>
	<circle fill="#D1D3D4" cx="397.3" cy="402.3" r="43.3"/>
	<radialGradient id="SVGID_8_" cx="397.3333" cy="396.6667" r="43.3333" gradientUnits="userSpaceOnUse">
		<stop  offset="0" style="stop-color:#F9ED32"/>
		<stop  offset="1" style="stop-color:#F7941D"/>
	</radialGradient>
	<circle fill="url(#SVGID_8_)" cx="397.3" cy="396.7" r="43.3"/>
</g>
<g>
	<linearGradient id="SVGID_9_" gradientUnits="userSpaceOnUse" x1="1783.9846" y1="413.7351" x2="1783.9846" y2="373">
		<stop  offset="0" style="stop-color:#231F20"/>
		<stop  offset="0.1898" style="stop-color:#D5D5D6"/>
		<stop  offset="0.4953" style="stop-color:#E6E7E8"/>
		<stop  offset="1" style="stop-color:#808285"/>
	</linearGradient>
	<rect x="1758.8" y="373" fill="url(#SVGID_9_)" width="50.5" height="40.7"/>
	<radialGradient id="SVGID_10_" cx="1504.4956" cy="393.3675" r="273.3876" gradientUnits="userSpaceOnUse">
		<stop  offset="0" style="stop-color:#6D6E71"/>
		<stop  offset="1" style="stop-color:#000000"/>
	</radialGradient>
	<circle fill="url(#SVGID_10_)" cx="1504.5" cy="393.4" r="273.4"/>
	<g>
		<circle fill="none" stroke="#A7A9AC" stroke-width="3" stroke-miterlimit="10" cx="1504.5" cy="393.4" r="201.9"/>
		<circle fill="none" stroke="#A7A9AC" stroke-width="3" stroke-miterlimit="10" cx="1504.5" cy="393.4" r="177.3"/>
		<circle fill="none" stroke="#A7A9AC" stroke-width="3" stroke-miterlimit="10" cx="1504.5" cy="393.4" r="152.7"/>
		<circle fill="none" stroke="#A7A9AC" stroke-width="3" stroke-miterlimit="10" cx="1504.5" cy="393.4" r="128.1"/>
		<circle fill="none" stroke="#A7A9AC" stroke-width="3" stroke-miterlimit="10" cx="1504.5" cy="393.4" r="103.5"/>
		<circle fill="none" stroke="#A7A9AC" stroke-width="3" stroke-miterlimit="10" cx="1504.5" cy="393.4" r="78.9"/>
		<circle fill="none" stroke="#A7A9AC" stroke-width="3" stroke-miterlimit="10" cx="1504.5" cy="393.4" r="54.3"/>
		<circle fill="none" stroke="#A7A9AC" stroke-width="3" stroke-miterlimit="10" cx="1504.5" cy="393.4" r="29.7"/>
	</g>
	<linearGradient id="SVGID_11_" gradientUnits="userSpaceOnUse" x1="2004.0656" y1="345.9096" x2="2004.0656" y2="440.8254">
		<stop  offset="6.967749e-02" style="stop-color:#231F20"/>
		<stop  offset="0.3849" style="stop-color:#4A494B"/>
		<stop  offset="1" style="stop-color:#000000"/>
	</linearGradient>
	<path fill="url(#SVGID_11_)" d="M2148.9,346l-330.7,15.1c-5,0.2-9,4.4-9,9.4v45.8c0,5,4,9.2,9,9.4l330.7,15.1
		c27.2,1.5,50-20.2,50-47.4v0C2198.9,366.1,2176.1,344.5,2148.9,346z M2152.8,419.4c-14.4,0-26.1-11.7-26.1-26.1
		c0-14.4,11.7-26.1,26.1-26.1c14.4,0,26.1,11.7,26.1,26.1C2178.9,407.8,2167.2,419.4,2152.8,419.4z"/>
	<linearGradient id="SVGID_12_" gradientUnits="userSpaceOnUse" x1="2152.7803" y1="363.6559" x2="2152.7803" y2="423.0792">
		<stop  offset="6.967749e-02" style="stop-color:#231F20"/>
		<stop  offset="0.3849" style="stop-color:#4A494B"/>
		<stop  offset="1" style="stop-color:#000000"/>
	</linearGradient>
	<path fill="url(#SVGID_12_)" d="M2152.8,363.7c-16.4,0-29.7,13.3-29.7,29.7c0,16.4,13.3,29.7,29.7,29.7s29.7-13.3,29.7-29.7
		C2182.5,377,2169.2,363.7,2152.8,363.7z M2152.8,419.4c-14.4,0-26.1-11.7-26.1-26.1c0-14.4,11.7-26.1,26.1-26.1
		c14.4,0,26.1,11.7,26.1,26.1C2178.9,407.8,2167.2,419.4,2152.8,419.4z"/>
</g>
<g>
	
		<linearGradient id="SVGID_13_" gradientUnits="userSpaceOnUse" x1="1709.6875" y1="1537.2429" x2="1709.6875" y2="1496.5078" gradientTransform="matrix(0.9913 -0.1313 7.321040e-02 0.5526 -41.4489 505.5374)">
		<stop  offset="0" style="stop-color:#231F20"/>
		<stop  offset="0.1898" style="stop-color:#D5D5D6"/>
		<stop  offset="0.4953" style="stop-color:#E6E7E8"/>
		<stop  offset="1" style="stop-color:#808285"/>
	</linearGradient>
	<polygon fill="url(#SVGID_13_)" points="1791,1127.2 1741,1133.8 1738,1111.3 1788,1104.7 	"/>
	
		<linearGradient id="SVGID_14_" gradientUnits="userSpaceOnUse" x1="1208.1047" y1="1150.5189" x2="1754.88" y2="1150.5189" gradientTransform="matrix(1 0 0 0.9964 0 2.8647)">
		<stop  offset="0" style="stop-color:#515254"/>
		<stop  offset="1" style="stop-color:#000000"/>
	</linearGradient>
	<path fill="url(#SVGID_14_)" d="M1643.3,1205h-323.6c-61.6,0-111.6-50-111.6-111.6v0h546.8v0C1754.9,1155,1704.9,1205,1643.3,1205z
		"/>
	<linearGradient id="SVGID_15_" gradientUnits="userSpaceOnUse" x1="1978.0623" y1="1039.5293" x2="1978.0623" y2="1133.8284">
		<stop  offset="6.967749e-02" style="stop-color:#231F20"/>
		<stop  offset="0.3849" style="stop-color:#4A494B"/>
		<stop  offset="1" style="stop-color:#000000"/>
	</linearGradient>
	<path fill="url(#SVGID_15_)" d="M1788.1,1096.8c138.7-40.1,260.5-53.1,359.6-57.3c13.8-0.6,25.2,10.4,25.2,24.2l0,0
		c0,13.4-10.9,24.3-24.3,24.2c-46.8-0.1-162.3,5-357.2,45.7c-4.2,0.9-8.2-2.3-8.2-6.6v-23.7
		C1783.2,1100.3,1785.2,1097.6,1788.1,1096.8z"/>
	<linearGradient id="SVGID_16_" gradientUnits="userSpaceOnUse" x1="1208.1047" y1="1090.9208" x2="1754.88" y2="1090.9208">
		<stop  offset="0" style="stop-color:#000000"/>
		<stop  offset="0.468" style="stop-color:#6D6E71"/>
		<stop  offset="1" style="stop-color:#000000"/>
	</linearGradient>
	<rect x="1208.1" y="1088.4" fill="url(#SVGID_16_)" width="546.8" height="5"/>
</g>
<g>
	<linearGradient id="SVGID_17_" gradientUnits="userSpaceOnUse" x1="391.5765" y1="1299.2438" x2="449.0324" y2="973.3953">
		<stop  offset="0" style="stop-color:#000000"/>
		<stop  offset="0.468" style="stop-color:#6D6E71"/>
		<stop  offset="1" style="stop-color:#000000"/>
	</linearGradient>
	<path fill="url(#SVGID_17_)" d="M693.4,1092c0,62.4-66.5,207-265.7,207c-215.8,0-265.7-144.6-265.7-207c0-62.4,119-113,265.7-113
		S693.4,1029.6,693.4,1092z"/>
	
		<linearGradient id="SVGID_18_" gradientUnits="userSpaceOnUse" x1="648.5433" y1="1057.2925" x2="648.5433" y2="1016.5574" gradientTransform="matrix(0.6056 -0.7957 0.8138 0.6194 -593.9688 896.1418)">
		<stop  offset="0" style="stop-color:#231F20"/>
		<stop  offset="0.1898" style="stop-color:#D5D5D6"/>
		<stop  offset="0.4953" style="stop-color:#E6E7E8"/>
		<stop  offset="1" style="stop-color:#808285"/>
	</linearGradient>
	<polygon fill="url(#SVGID_18_)" points="674.5,1014.9 644,1055 610.8,1029.8 641.4,989.7 	"/>
	<linearGradient id="SVGID_19_" gradientUnits="userSpaceOnUse" x1="406.1701" y1="1210.6637" x2="448.0201" y2="973.3201">
		<stop  offset="0" style="stop-color:#000000"/>
		<stop  offset="0.468" style="stop-color:#6D6E71"/>
		<stop  offset="1" style="stop-color:#000000"/>
	</linearGradient>
	<ellipse fill="url(#SVGID_19_)" cx="427.1" cy="1092" rx="265.7" ry="113"/>
	<linearGradient id="SVGID_20_" gradientUnits="userSpaceOnUse" x1="406.7557" y1="1210.6637" x2="448.6058" y2="973.3201">
		<stop  offset="0" style="stop-color:#000000"/>
		<stop  offset="0.468" style="stop-color:#6D6E71"/>
		<stop  offset="1" style="stop-color:#000000"/>
	</linearGradient>
	<ellipse fill="url(#SVGID_20_)" cx="427.7" cy="1092" rx="265.7" ry="113"/>
	
		<radialGradient id="SVGID_21_" cx="428.5341" cy="1091.9919" r="185.707" gradientTransform="matrix(1.0538 0 0 1 -24.5141 0)" gradientUnits="userSpaceOnUse">
		<stop  offset="0" style="stop-color:#6D6E71"/>
		<stop  offset="1" style="stop-color:#000000"/>
	</radialGradient>
	<ellipse fill="url(#SVGID_21_)" cx="427.1" cy="1092" rx="254.7" ry="102.8"/>
	<radialGradient id="SVGID_22_" cx="427.0951" cy="1178.9919" r="178.1756" gradientUnits="userSpaceOnUse">
		<stop  offset="0" style="stop-color:#6D6E71"/>
		<stop  offset="1" style="stop-color:#000000"/>
	</radialGradient>
	<path fill="url(#SVGID_22_)" d="M427.1,1194.8c81,0,153.2-15.3,199.8-39.1c-8.9-41.4-94.9-73.9-199.8-73.9s-191,32.5-199.8,73.9
		C273.9,1179.5,346.1,1194.8,427.1,1194.8z"/>
	
		<linearGradient id="SVGID_23_" gradientUnits="userSpaceOnUse" x1="744.1082" y1="855.8416" x2="801.1214" y2="912.8549" gradientTransform="matrix(0.996 8.968673e-02 -8.968673e-02 0.996 89.3917 -60.6742)">
		<stop  offset="0.2468" style="stop-color:#4A494B"/>
		<stop  offset="1" style="stop-color:#000000"/>
	</linearGradient>
	<path fill="url(#SVGID_23_)" d="M908.3,771.8L908.3,771.8c-10.6-5.6-23.3-5.5-33.7,0.5C790.7,820.5,705.2,893.1,638,982.1
		c-3.7,4.9-2.8,11.9,2.1,15.7l25.2,19.4c4.5,3.5,10.9,3,14.9-1c94-95.2,177.3-152.6,229.5-183.6
		C933.2,818.8,932.4,784.6,908.3,771.8z M886.7,804.8c-6.1,4.6-13,6.3-18.3,5c-0.2-5.6,3.4-12.3,9.9-17.2c6.1-4.6,13-6.3,18.3-5
		C896.8,793.2,893.2,799.9,886.7,804.8z"/>
	
		<linearGradient id="SVGID_24_" gradientUnits="userSpaceOnUse" x1="862.6552" y1="763.6592" x2="862.6552" y2="797.1161" gradientTransform="matrix(0.996 8.968673e-02 -8.968673e-02 0.996 89.3917 -60.6742)">
		<stop  offset="6.967749e-02" style="stop-color:#231F20"/>
		<stop  offset="0.3849" style="stop-color:#4A494B"/>
		<stop  offset="1" style="stop-color:#000000"/>
	</linearGradient>
	<path fill="url(#SVGID_24_)" d="M878.4,792.6c6.1-4.6,13-6.3,18.3-5c-0.1-2.1-0.7-4.1-1.9-5.7c-4.5-6-15.3-5.4-24.2,1.3
		c-8.9,6.7-12.5,16.9-8,22.9c1.4,1.9,3.5,3.1,5.9,3.7C868.3,804.2,871.9,797.5,878.4,792.6z"/>
</g>
<g>
	<linearGradient id="SVGID_25_" gradientUnits="userSpaceOnUse" x1="431.6667" y1="1588.3333" x2="431.6667" y2="1455">
		<stop  offset="0" style="stop-color:#000000"/>
		<stop  offset="0.468" style="stop-color:#6D6E71"/>
		<stop  offset="1" style="stop-color:#000000"/>
	</linearGradient>
	<path fill="url(#SVGID_25_)" d="M431.7,1455c-22.8,0-41.3,13.1-41.3,29.3c0,16.2,0,104,41.3,104c37.8,0,41.3-87.8,41.3-104
		C473,1468.1,454.5,1455,431.7,1455z M431.7,1478.2c-8,0-14.8-2.1-17.6-5c2.8-2.9,9.6-5,17.6-5s14.8,2.1,17.6,5
		C446.5,1476.2,439.7,1478.2,431.7,1478.2z"/>
	<linearGradient id="SVGID_26_" gradientUnits="userSpaceOnUse" x1="400.0147" y1="1793.4257" x2="444.4054" y2="1541.6733">
		<stop  offset="0" style="stop-color:#000000"/>
		<stop  offset="0.468" style="stop-color:#6D6E71"/>
		<stop  offset="1" style="stop-color:#000000"/>
	</linearGradient>
	<path fill="url(#SVGID_26_)" d="M693.4,1635.2c0,46.6-66.5,154.5-265.7,154.5c-215.8,0-265.7-108-265.7-154.5s119-84.4,265.7-84.4
		S693.4,1588.7,693.4,1635.2z"/>
	<linearGradient id="SVGID_27_" gradientUnits="userSpaceOnUse" x1="410.5891" y1="1728.8557" x2="443.6012" y2="1541.6348">
		<stop  offset="0" style="stop-color:#000000"/>
		<stop  offset="0.468" style="stop-color:#6D6E71"/>
		<stop  offset="1" style="stop-color:#000000"/>
	</linearGradient>
	<ellipse fill="url(#SVGID_27_)" cx="427.1" cy="1635.2" rx="265.7" ry="84.4"/>
	<linearGradient id="SVGID_28_" gradientUnits="userSpaceOnUse" x1="411.1747" y1="1728.8557" x2="444.1868" y2="1541.6348">
		<stop  offset="0" style="stop-color:#000000"/>
		<stop  offset="0.468" style="stop-color:#6D6E71"/>
		<stop  offset="1" style="stop-color:#000000"/>
	</linearGradient>
	<ellipse fill="url(#SVGID_28_)" cx="427.7" cy="1635.2" rx="265.7" ry="84.4"/>
	
		<radialGradient id="SVGID_29_" cx="428.5341" cy="1623.335" r="185.707" gradientTransform="matrix(1.0538 0 0 0.7466 -24.5141 423.28)" gradientUnits="userSpaceOnUse">
		<stop  offset="0" style="stop-color:#6D6E71"/>
		<stop  offset="1" style="stop-color:#000000"/>
	</radialGradient>
	<ellipse fill="url(#SVGID_29_)" cx="427.1" cy="1635.2" rx="254.7" ry="76.7"/>
	
		<radialGradient id="SVGID_30_" cx="427.0951" cy="1710.335" r="178.1756" gradientTransform="matrix(1 0 0 0.7466 0 423.28)" gradientUnits="userSpaceOnUse">
		<stop  offset="0" style="stop-color:#6D6E71"/>
		<stop  offset="1" style="stop-color:#000000"/>
	</radialGradient>
	<path fill="url(#SVGID_30_)" d="M427.1,1712c81,0,153.2-11.4,199.8-29.2c-8.9-30.9-94.9-55.2-199.8-55.2s-191,24.3-199.8,55.2
		C273.9,1700.6,346.1,1712,427.1,1712z"/>
	<linearGradient id="SVGID_31_" gradientUnits="userSpaceOnUse" x1="431.6667" y1="1473.25" x2="431.6667" y2="1462.5">
		<stop  offset="0" style="stop-color:#6D6E71"/>
		<stop  offset="1" style="stop-color:#000000"/>
	</linearGradient>
	<path fill="url(#SVGID_31_)" d="M431.7,1468.2c8,0,14.8,2.1,17.6,5c0.8-0.9,1.3-1.9,1.3-2.9c0-4.3-8.5-7.9-18.9-7.9
		s-18.9,3.5-18.9,7.9c0,1,0.5,2,1.3,2.9C416.9,1470.3,423.7,1468.2,431.7,1468.2z"/>
</g>
<g>
	<linearGradient id="SVGID_32_" gradientUnits="userSpaceOnUse" x1="1768.0322" y1="1673.1956" x2="1812.423" y2="1421.4434">
		<stop  offset="0" style="stop-color:#000000"/>
		<stop  offset="0.468" style="stop-color:#6D6E71"/>
		<stop  offset="1" style="stop-color:#000000"/>
	</linearGradient>
	<path fill="url(#SVGID_32_)" d="M2061.4,1515c0,46.6-66.5,154.5-265.7,154.5c-215.8,0-265.7-108-265.7-154.5
		c0-46.6,119-84.4,265.7-84.4S2061.4,1468.4,2061.4,1515z"/>
	<linearGradient id="SVGID_33_" gradientUnits="userSpaceOnUse" x1="1778.6066" y1="1608.6257" x2="1811.6187" y2="1421.4048">
		<stop  offset="0" style="stop-color:#000000"/>
		<stop  offset="0.468" style="stop-color:#6D6E71"/>
		<stop  offset="1" style="stop-color:#000000"/>
	</linearGradient>
	<ellipse fill="url(#SVGID_33_)" cx="1795.1" cy="1515" rx="265.7" ry="84.4"/>
	<linearGradient id="SVGID_34_" gradientUnits="userSpaceOnUse" x1="1779.1923" y1="1608.6257" x2="1812.2043" y2="1421.4048">
		<stop  offset="0" style="stop-color:#000000"/>
		<stop  offset="0.468" style="stop-color:#6D6E71"/>
		<stop  offset="1" style="stop-color:#000000"/>
	</linearGradient>
	<ellipse fill="url(#SVGID_34_)" cx="1795.7" cy="1515" rx="265.7" ry="84.4"/>
	
		<radialGradient id="SVGID_35_" cx="1726.6522" cy="1462.296" r="185.707" gradientTransform="matrix(1.0538 0 0 0.7466 -24.5141 423.28)" gradientUnits="userSpaceOnUse">
		<stop  offset="0" style="stop-color:#6D6E71"/>
		<stop  offset="1" style="stop-color:#000000"/>
	</radialGradient>
	<ellipse fill="url(#SVGID_35_)" cx="1795.1" cy="1515" rx="254.7" ry="76.7"/>
	
		<radialGradient id="SVGID_36_" cx="1795.1127" cy="1549.296" r="178.1756" gradientTransform="matrix(1 0 0 0.7466 0 423.28)" gradientUnits="userSpaceOnUse">
		<stop  offset="0" style="stop-color:#6D6E71"/>
		<stop  offset="1" style="stop-color:#000000"/>
	</radialGradient>
	<path fill="url(#SVGID_36_)" d="M1795.1,1591.7c81,0,153.2-11.4,199.8-29.2c-8.9-30.9-94.9-55.2-199.8-55.2
		c-104.9,0-191,24.3-199.8,55.2C1641.9,1580.3,1714.1,1591.7,1795.1,1591.7z"/>
	
		<linearGradient id="SVGID_37_" gradientUnits="userSpaceOnUse" x1="1341.6316" y1="2353.6631" x2="1341.6316" y2="2312.928" gradientTransform="matrix(-0.9405 0.3399 0.1895 0.5243 2432.3818 -65.9899)">
		<stop  offset="0" style="stop-color:#231F20"/>
		<stop  offset="0.1898" style="stop-color:#D5D5D6"/>
		<stop  offset="0.4953" style="stop-color:#E6E7E8"/>
		<stop  offset="1" style="stop-color:#808285"/>
	</linearGradient>
	<path fill="url(#SVGID_37_)" d="M1592.9,1632.6l36.8-13.3c5.9-2.1,8.9-8.6,6.8-14.5v0c-2.1-5.9-8.6-8.9-14.5-6.8l-36.8,13.3
		L1592.9,1632.6z"/>
	<linearGradient id="SVGID_38_" gradientUnits="userSpaceOnUse" x1="1405.5563" y1="1606.6808" x2="1405.5563" y2="1782.8915">
		<stop  offset="6.967749e-02" style="stop-color:#231F20"/>
		<stop  offset="0.3849" style="stop-color:#4A494B"/>
		<stop  offset="1" style="stop-color:#000000"/>
	</linearGradient>
	<path fill="url(#SVGID_38_)" d="M1602.2,1617.7l-6.7-3.5c-13.7-7.2-29.6-9.3-44.7-6c-123.1,27.2-241.5,76.1-329.3,116.5
		c-21.6,10-24,39.7-4.3,52.9v0c9.8,6.6,22.6,6.9,32.7,0.8c40-24.1,154.6-86.7,350.4-143.2
		C1608.7,1632.9,1609.8,1621.6,1602.2,1617.7z M1250.1,1746.3c-7.1,2.7-14.2,2.7-19,0.4c-0.1-0.2-0.2-0.4-0.3-0.7
		c-2.6-6.9,4.1-15.7,14.9-19.9c7.1-2.7,14.2-2.7,19-0.4c0.1,0.2,0.2,0.4,0.3,0.7C1267.6,1733.3,1261,1742.2,1250.1,1746.3z"/>
	<linearGradient id="SVGID_39_" gradientUnits="userSpaceOnUse" x1="1244.9583" y1="1719.4501" x2="1244.9583" y2="1746.7192">
		<stop  offset="6.967749e-02" style="stop-color:#231F20"/>
		<stop  offset="0.3849" style="stop-color:#4A494B"/>
		<stop  offset="1" style="stop-color:#000000"/>
	</linearGradient>
	<path fill="url(#SVGID_39_)" d="M1230.8,1746c-2.6-6.9,4.1-15.7,14.9-19.9c7.1-2.7,14.2-2.7,19-0.4c-3.1-6.3-13.6-8.2-24-4.3
		c-10.8,4.1-17.5,13-14.9,19.9c0.9,2.4,2.8,4.2,5.3,5.3C1231,1746.5,1230.9,1746.3,1230.8,1746z"/>
</g>
</svg>
