<?xml version="1.0" encoding="utf-8"?>
<!-- Generator: Adobe Illustrator 25.4.1, SVG Export Plug-In . SVG Version: 6.00 Build 0)  -->
<svg version="1.1" id="Calque_1" xmlns="http://www.w3.org/2000/svg" xmlns:xlink="http://www.w3.org/1999/xlink" x="0px" y="0px"
	 viewBox="0 0 1079.7 1080" style="enable-background:new 0 0 1079.7 1080;" xml:space="preserve">
<style type="text/css">
	.st0{fill:#9356DC;}
	.st1{fill:#FF79DA;}
	.st2{fill:#99E2D0;}
	.st3{fill:#F5BC8F;}
	.st4{fill:#E8A878;}
	.st5{fill:#A0A0A0;}
	.st6{fill:#EFEFEF;}
	.st7{fill:#262626;}
	.st8{fill:#232323;}
	.st9{fill:url(#SVGID_1_);}
	.st10{fill:url(#SVGID_00000173134916908016184420000003712045728168853431_);}
	.st11{fill:url(#SVGID_00000142174006810441460690000013365251686725941912_);}
	.st12{fill:url(#SVGID_00000052819255800861058730000005566204655250637455_);}
	.st13{fill:#F4F4F4;}
</style>
<g id="logo_x5F_letters">
	<path id="o1" class="st0" d="M1118.3,756.8c9.3,0,16.1,1.9,20.5,5.6c4.4,3.7,6.6,8.6,6.6,14.7c0,2-0.3,4.3-0.9,6.9
		c-1.3,5.6-3.7,10.5-7.3,14.7c-3.5,4.1-7.9,7.4-13.1,9.7c-5.1,2.2-10.6,3.4-16.7,3.4c-9.5,0-16.5-1.9-21.1-5.6
		c-4.5-3.8-6.7-8.9-6.7-15.1c0-2.1,0.3-4.5,0.9-7.1c1.3-5.4,3.7-10.1,7.4-14.1c3.6-4.1,8.1-7.4,13.4-9.6
		C1106.6,757.9,1112.2,756.8,1118.3,756.8z M1117.9,765.9c-1.4,0-3,1.3-4.6,3.9c-1.5,2.5-3.4,7.4-5.6,14.5
		c-2.2,7.1-3.3,12.1-3.3,14.9c0,1.5,0.2,2.5,0.7,3.1c0.5,0.5,1.1,0.7,1.9,0.7c1.4,0.1,2.9-1.1,4.4-3.6c1.5-2.6,3.5-7.7,5.8-15.1
		c2.1-6.6,3.2-11.4,3.2-14.5c0-1.4-0.2-2.4-0.7-3C1119.3,766.2,1118.8,765.9,1117.9,765.9z"/>
	<path id="h" class="st0" d="M1206.4,796.8c-0.1,0.3-0.2,0.7-0.2,1.2c0,0.5,0.1,0.9,0.3,1.1c0.3,0.3,0.6,0.4,1.1,0.4
		c0.9,0,1.5-0.4,2-1.1c0.6-0.8,1.1-1.1,1.2-1.1c0.4,0,0.6,0.2,0.9,0.7c0.2,0.4,0.3,1,0.3,1.5c0.1,2-0.6,3.9-1.9,5.8
		c-1.3,1.8-3.4,3.4-6,4.6c-2.6,1.1-5.7,1.7-9.4,1.7c-4.5,0-8-1.1-10.7-3.1c-2.7-2.1-4-4.9-4.1-8.4c0-2.5,0.6-5.4,1.8-8.5l5.6-14.7
		c0.4-0.9,0.5-1.6,0.5-2.1c0-0.9-0.3-1.5-1-2c-0.6-0.6-1.2-0.9-2-0.9c-1.3,0-2.6,0.6-4,1.8c-1.3,1.1-2.4,3.1-3.2,5.7v-0.2l-6.4,20.8
		c-0.2,0.9-0.3,1.5-0.3,2.1c0,0.9,0.2,1.6,0.5,2.1c0.4,0.5,0.9,1,1.4,1.4c0.5,0.5,0.9,0.9,1.1,1.2c0.2,0.3,0.2,0.7,0.1,1.1
		c-0.4,0.9-1.1,1.5-2,1.9c-1.1,0.4-2.6,0.6-4.7,0.6h-23.4c-1.8,0-3.1-0.3-3.9-0.9c-0.9-0.6-1.1-1.4-0.9-2.4c0.3-0.9,1-1.5,2.1-2.1
		c1.1-0.6,1.9-1.1,2.6-1.9s1.2-1.9,1.7-3.5l15.5-51c0.2-0.6,0.3-1.1,0.3-1.5c0-0.8-0.2-1.3-0.6-1.8s-0.9-1-1.4-1.4
		c-0.7-0.6-1.1-1.1-1.5-1.4c-0.3-0.4-0.3-1-0.1-1.6c0.4-1.5,2.6-3,6.4-4.1c3.8-1.1,7.9-1.7,12.2-1.7c3.9,0,6.9,0.8,8.7,2.2
		c1.9,1.5,2.9,3.5,2.9,6.1c0,1.5-0.2,3-0.7,4.4l-5.6,18c2.7-3.4,5.5-5.9,8.4-7.3c3-1.3,6.2-2,9.7-2c4.1,0,7.5,1.2,10.1,3.8
		c2.6,2.5,3.9,5.8,3.9,9.9c0,2.1-0.4,4.2-1.1,6.2L1206.4,796.8z"/>
	<path id="m" class="st1" d="M1313.6,796.8c-0.1,0.3-0.2,0.7-0.2,1.2c0,0.5,0.1,0.9,0.3,1.1c0.3,0.3,0.6,0.4,1.1,0.4
		c0.9,0,1.5-0.4,2-1.1c0.6-0.8,1.1-1.1,1.2-1.1c0.4,0,0.6,0.2,0.9,0.7c0.2,0.4,0.3,1,0.3,1.5c0.1,2-0.6,3.9-1.9,5.8
		c-1.3,1.8-3.4,3.4-6,4.6c-2.6,1.1-5.7,1.7-9.4,1.7c-4.5,0-8-1.1-10.7-3.1c-2.7-2.1-4-4.9-4.1-8.4c0-2.5,0.6-5.4,1.8-8.5l5.6-14.7
		c0.4-0.9,0.5-1.6,0.5-2.1c0-0.9-0.3-1.5-1-2c-0.6-0.6-1.2-0.9-2-0.9c-1.1,0-2.4,0.5-3.5,1.5c-1.2,1.1-2.3,2.6-3.3,4.8l-5.6,18.3
		c-0.1,0.3-0.2,0.7-0.2,1.2c0,0.5,0.1,0.9,0.3,1.1c0.3,0.3,0.6,0.4,1.1,0.4c0.9,0,1.5-0.4,2-1.1c0.6-0.8,1.1-1.1,1.2-1.1
		c0.4,0,0.6,0.2,0.9,0.7c0.2,0.4,0.3,1,0.3,1.5c0.1,2-0.6,3.9-1.9,5.8c-1.3,1.8-3.4,3.4-6,4.6c-2.6,1.1-5.7,1.7-9.4,1.7
		c-4.5,0-8-1.1-10.7-3.1c-2.7-2.1-4-4.9-4.1-8.4c0-2.5,0.6-5.4,1.8-8.5l5.6-14.7c0.4-0.9,0.5-1.6,0.5-2.1c0-0.9-0.3-1.5-1-2
		c-0.6-0.6-1.2-0.9-2-0.9c-1.1,0-2.4,0.5-3.5,1.5c-1.2,1-2.2,2.5-3.1,4.7l-6.7,21.9c-0.3,0.8-0.4,1.4-0.4,2.1c0,0.9,0.2,1.5,0.5,2
		c0.4,0.5,0.9,1,1.4,1.5c0.5,0.4,0.9,0.8,1.1,1.1c0.2,0.4,0.2,0.8,0.1,1.2c-0.3,0.9-1,1.5-1.9,1.9c-1.1,0.4-2.6,0.6-4.8,0.6h-23.4
		c-1.8,0-3.1-0.3-3.8-0.9c-0.9-0.6-1.1-1.4-1-2.4c0.3-0.9,1-1.5,2.1-2.1c1.1-0.6,1.9-1.1,2.6-1.9c0.7-0.8,1.2-1.9,1.7-3.5l9.1-29.6
		c0.1-0.4,0.2-0.9,0.2-1.4c0-0.8-0.2-1.3-0.5-1.7c-0.3-0.4-0.8-1-1.4-1.5c-0.7-0.6-1.1-1.1-1.4-1.4c-0.3-0.4-0.3-1-0.1-1.6
		c0.4-1.5,2.6-3,6.4-4.1c3.9-1.2,7.9-1.8,12.2-1.8c3.4,0,5.9,1,7.8,2.8c2,1.8,3,4.4,2.9,7.6c2.8-3.9,5.7-6.6,8.8-8
		c3.2-1.5,6.5-2.2,10.1-2.2c3.9,0,7.2,1.1,9.6,3.4c2.5,2.2,3.9,5.2,4.2,8.9c3-4.6,6-7.8,9.4-9.6c3.4-1.8,7-2.8,10.9-2.8
		c4.1,0,7.5,1.2,10.1,3.8c2.6,2.5,3.9,5.8,3.9,9.9c0,2.1-0.4,4.2-1.1,6.2L1313.6,796.8z"/>
	<path id="y" class="st1" d="M1376.6,756.8c3,0,5.4,1.2,7.2,3.6s2.8,5.6,2.8,9.9c0,3.6-0.7,7.5-1.9,11.7
		c-2.5,8.4-6.6,16.3-12.2,23.7c-5.6,7.5-11.9,13.4-19.1,17.9c-7.2,4.5-14.4,6.7-21.4,6.7c-3.5,0-6.6-0.6-9.2-1.8
		c-2.5-1.2-4.4-2.9-5.7-4.9s-2-4.2-2-6.5c0-1.1,0.2-2.1,0.5-3.4c0.6-1.9,1.6-3.4,3.1-4.4s3.2-1.5,5.1-1.5c3.2,0,5.6,1.1,7.7,3.2
		c2,2.2,3.4,5.2,3.9,8.9c4.4-0.2,8.4-2.1,12.1-5.6c-3.4-0.6-6-1.8-7.8-3.4c-1.6-1.8-2.8-4.5-3.4-8.1l-4.1-25.1
		c-0.2-1.3-0.5-2.2-1-2.7c-0.4-0.6-0.9-0.9-1.4-0.9c-0.5,0-1.1,0.2-1.7,0.7c-0.6,0.5-1.1,0.7-1.3,0.7c-0.6,0-0.9-0.6-0.9-1.7
		c0-1,0.2-2,0.5-3.1c1.2-3.9,3.5-7.2,6.9-9.9s7.2-4.1,11.7-4.1c4.4,0,7.6,1.3,9.6,3.9c2.1,2.6,3.4,6.6,4.1,12l3.1,22.5
		c0.2,1.7,0.9,2.6,1.8,2.6c1.2,0,2.7-1.1,4.3-3.3c1.6-2.2,3.3-5.5,4.8-9.5c-2-1.8-3.6-3.9-4.7-6.3c-1.1-2.4-1.6-5-1.6-7.7
		c0-2.1,0.3-4,0.9-5.7c0.9-2.7,2.1-4.8,3.8-6.1C1372.5,757.5,1374.5,756.8,1376.6,756.8z"/>
	<path id="f" class="st2" d="M1427.6,735.3c7.3,0,12.7,1.1,16.4,3.4c3.6,2.2,5.6,4.9,5.6,8c0,2.6-1.1,4.6-3.3,6
		c-2.1,1.3-4.9,2-8.4,2c-3.2,0-5.6-0.8-7.5-2.4c-1.8-1.5-2.7-3.5-2.7-5.8c0-1.4,0.5-3,1.3-4.5c-2,0-3.7,0.5-5.1,1.5
		c-1.3,1-2.4,2.6-3.2,5c-0.4,1.5-0.6,2.9-0.6,4.2c0,1.6,0.3,3,0.9,3.9c0.6,0.9,1.4,1.3,2.6,1.3h6c3.5,0,5.4,1.1,5.4,3.3
		c0,0.3-0.1,0.7-0.2,1.2c-0.4,1.5-1.2,2.6-2.6,3.4c-1.2,0.8-3.1,1.1-5.6,1.1h-3.1l-10.1,33.1c-0.2,0.9-0.3,1.5-0.3,2.1
		c0,0.9,0.2,1.6,0.5,2.1c0.4,0.5,0.9,1,1.4,1.4c0.5,0.5,0.9,0.9,1.1,1.2c0.2,0.3,0.2,0.7,0.1,1.1c-0.4,0.9-1.1,1.5-2,1.9
		c-1.1,0.4-2.6,0.6-4.7,0.6h-23.4c-1.8,0-3.1-0.3-3.9-0.9c-0.9-0.6-1.1-1.4-0.9-2.4c0.3-0.9,1-1.5,2.1-2.1c1.1-0.6,1.9-1.1,2.6-1.9
		c0.7-0.8,1.2-1.9,1.7-3.5l7.9-26.1c0.4-1.1,0.5-2.1,0.5-3.2c0-1.3-0.3-2.4-1-3.2c-0.6-0.9-1.4-1.7-2.6-2.7
		c-0.8-0.6-1.3-1.1-1.7-1.5c-0.4-0.5-0.5-1.1-0.5-1.6c-0.1-1.3,0.4-2.2,1.3-2.8c1.1-0.6,3-0.9,5.7-0.9h2.6c-0.5-1.7-0.7-3.4-0.7-5.1
		c0-1.7,0.3-3.4,1-5.4c1.3-3.4,4-6.4,8.3-8.8C1412.9,736.5,1419.2,735.3,1427.6,735.3z"/>
	<path id="o2" class="st2" d="M1468,756.8c9.3,0,16.1,1.9,20.5,5.6c4.4,3.7,6.6,8.6,6.6,14.7c0,2-0.3,4.3-0.9,6.9
		c-1.3,5.6-3.7,10.5-7.3,14.7c-3.5,4.1-7.9,7.4-13.1,9.7c-5.1,2.2-10.6,3.4-16.7,3.4c-9.5,0-16.5-1.9-21.1-5.6
		c-4.5-3.8-6.7-8.9-6.7-15.1c0-2.1,0.3-4.5,0.9-7.1c1.3-5.4,3.7-10.1,7.4-14.1c3.6-4.1,8.1-7.4,13.4-9.6
		C1456.4,757.9,1462,756.8,1468,756.8z M1467.7,765.9c-1.4,0-3,1.3-4.6,3.9c-1.5,2.5-3.4,7.4-5.6,14.5c-2.2,7.1-3.3,12.1-3.3,14.9
		c0,1.5,0.2,2.5,0.7,3.1c0.5,0.5,1.1,0.7,1.9,0.7c1.4,0.1,2.9-1.1,4.4-3.6s3.5-7.7,5.8-15.1c2.1-6.6,3.2-11.4,3.2-14.5
		c0-1.4-0.2-2.4-0.7-3C1469.1,766.2,1468.5,765.9,1467.7,765.9z"/>
	<path id="o3" class="st2" d="M1535.1,756.8c9.3,0,16.1,1.9,20.5,5.6c4.4,3.7,6.6,8.6,6.6,14.7c0,2-0.3,4.3-0.9,6.9
		c-1.3,5.6-3.7,10.5-7.3,14.7c-3.5,4.1-7.9,7.4-13.1,9.7c-5.1,2.2-10.6,3.4-16.7,3.4c-9.5,0-16.5-1.9-21.1-5.6
		c-4.5-3.8-6.7-8.9-6.7-15.1c0-2.1,0.3-4.5,0.9-7.1c1.3-5.4,3.7-10.1,7.4-14.1c3.6-4.1,8.1-7.4,13.4-9.6
		C1523.4,757.9,1529.1,756.8,1535.1,756.8z M1534.8,765.9c-1.4,0-3,1.3-4.6,3.9c-1.5,2.5-3.4,7.4-5.6,14.5
		c-2.2,7.1-3.3,12.1-3.3,14.9c0,1.5,0.2,2.5,0.7,3.1c0.5,0.5,1.1,0.7,1.9,0.7c1.4,0.1,2.9-1.1,4.4-3.6s3.5-7.7,5.8-15.1
		c2.1-6.6,3.2-11.4,3.2-14.5c0-1.4-0.2-2.4-0.7-3C1536.2,766.2,1535.6,765.9,1534.8,765.9z"/>
	<path id="d" class="st2" d="M1619.8,796.1c-0.1,0.6-0.2,1-0.2,1.1c0,0.5,0.1,0.9,0.4,1.1s0.6,0.4,1.1,0.4c0.9,0,1.5-0.4,2-1.1
		c0.6-0.8,1.1-1.1,1.2-1.1c0.4,0,0.6,0.2,0.9,0.7s0.3,1.1,0.3,1.6c0.1,1.8-0.7,3.7-2.1,5.6s-3.4,3.4-5.8,4.7
		c-2.5,1.2-5.1,1.8-7.9,1.8c-3.4,0-6.4-0.7-8.9-1.9s-4.3-3-5.2-5.1c-1.8,2.4-3.9,4.1-6.3,5.4s-4.9,1.7-7.6,1.7c-3.2,0-6-0.8-8.8-2.4
		c-2.7-1.5-4.8-3.8-6.4-6.6c-1.5-3-2.4-6.2-2.4-10c0-6.2,1.1-12.1,3.4-17.5c2.4-5.6,5.6-10,10-13.3c4.2-3.4,9-5.1,14.5-5.1
		c3,0,5.5,0.4,7.5,1.1c2.1,0.7,4,1.7,5.7,3.1l3.4-11.5c0.2-0.6,0.3-1.1,0.3-1.5c0-0.8-0.2-1.3-0.6-1.8s-0.9-1-1.4-1.4
		c-0.7-0.6-1.1-1.1-1.5-1.4c-0.3-0.4-0.3-1-0.1-1.6c0.4-1.5,2.6-3,6.4-4.1c3.9-1.1,7.9-1.7,12.2-1.7c3.9,0,6.9,0.8,8.7,2.2
		c1.9,1.5,2.9,3.5,2.9,6.1c0,1.5-0.2,3-0.7,4.4L1619.8,796.1z M1602.7,767.4c-1.1-1-2.3-1.4-3.5-1.4c-2,0-3.9,1.4-5.8,4.4
		c-1.9,3-3.4,6.5-4.6,10.6c-1.1,4.1-1.7,7.9-1.6,11.2c0,3.7,1.2,5.6,3.6,5.6c0.9,0,1.6-0.4,2.2-1.1c0.6-0.8,1.1-1.9,1.7-3.5
		L1602.7,767.4z"/>
</g>
<g id="waiter_x5F_2">
	<g id="waiter_x5F_hand_x5F_2">
		<g>
			<path class="st3" d="M-451.7,15.5c8.3-1.9,15.8-3.1,34.6,3.5c18.8,6.6,38.3,11.2,55.8,14.8c6.1,1.2,12.2,1.3,17.5,3.4
				c7.2,0.2,28.1,0.8,33.3,0.3c6.3-0.6,10.1,1.7,21.5,2s25.7,0,27.4,3.6c1.8,3.6-3.5,8.6-9.4,10.7c-5.9,2.1-26.2,0.5-38.2,2.8
				c-7.2,1.4-13.8,3.1-18,4.2c5.1,11.8,10.3,24.1,10.3,24.1l-2.1,17.5l-9.7-2.2c-9.7-2.5-6.3-4-18.1,0c-11.8,3.9-15.2,2.9-16.5,10.9
				c-1.3,7.9,6.5,21.3,7.8,35.6c1.3,14.3-0.7,26.9-6.8,27.1c-6.1,0.2-8-0.3-12.1-12.7c-4.1-12.4-8.1-36.5-13.5-44.1
				s-14.6-8.5-20.9-21.3S-419,74.5-419,74.5s-3.3-6.2-13.4-6.9S-452,65-452,65s-6.5-4.5-9.1-15.3C-465,33.8-460,17.4-451.7,15.5z"/>
			<path class="st3" d="M-275.3,155c0.2,3.9-6.7,2.3-9.9-1.1c-8.2-8.5-16.6-42.1-16.6-42.1c-5.3-7.3,10.8-17.3,10.8-17.3
				S-276.2,139.4-275.3,155z"/>
			<path class="st3" d="M-294.1,113.5c0.4,5.5,1.9,22-1.5,33.3s-8.1,24-11.7,22.1c-3.7-2-8.2-6.7-8.2-14.6s5.9-28.8,5.9-28.8
				c-2.8-10.4-12.6-24.5-12.6-24.5s0.4-14.5,2.3-17.1s3.4-2.4,8.1-0.4C-307.2,85.3-295.5,95.4-294.1,113.5z"/>
			<path class="st4" d="M-319.7,86.6c-0.6,3.2,1.6,13.5,1.6,13.5s10.3,13.4,13.2,23.9c0,0-4.3,4-7.4,28c-0.9,7,4.2,13.4,7.6,15.6
				c-0.6,0.7-1.7,2-2.9,1.3c-3.7-2-8.2-6.7-8.2-14.6s5.9-28.8,5.9-28.8c-2.8-10.4-12.6-24.5-12.6-24.5s0.4-14.5,2.3-17.1
				C-318.8,81.8-319.3,84.5-319.7,86.6z"/>
			<path class="st3" d="M-271.3,137.7c0.3,3.5-4.8,5.6-8.8,2.7s-8-14-12.8-25.2s-5.4-14.4-10.8-18.6c-6.6-5.1-14.8-8.4-18.1-12.3
				c-8.5-10.1-6.4-27.8-6.4-27.8c0.9-2.7,29,11,36.4,23.8C-284.6,93.2-272.2,125.7-271.3,137.7z"/>
			<path class="st4" d="M-287.8,143.7c1.5,4.1,4.6,7.7,7.9,10.7c1.3,1.2,2.6,1.1,4.1,1.7l0.2-0.1c-0.4,2-3.3,1.9-4.8,1.3
				c-7.8-2.8-14.1-16.4-13.7-18.2c0.4-1.9,2-10.8,2.3-12.8C-291.3,127.1-291.5,133.4-287.8,143.7z"/>
			<g>
				<path class="st4" d="M-409.9,93.6c-0.1-0.2-0.1-0.4-0.2-0.5c0.1,0.1,0.2,0.2,0.3,0.4C-409.8,93.6-409.7,93.8-409.9,93.6z"/>
				<path class="st4" d="M-420.4,56.8c0.3,1.1-0.6,2.5-0.5,3.7c0.1,1.4,0.6,2.8,0.9,4.1c0.9,3.7,2.5,7,4,10.3c1.2,2.7,2.4,5.3,3.5,8
					c1.1,2.6,1.3,5.1,1.8,7.7c0.2,0.8,0.5,1.7,0.7,2.5c-1.5-2.1-2.1-4.2-2.9-6.8c-1-3.2-3-5.6-4.6-8.3c-3.2-5.3-7.5-10.7-5.6-17.5
					C-422.7,59.3-421.9,57.1-420.4,56.8z"/>
				<path class="st4" d="M-409.7,93.6C-409.7,93.5-409.7,93.5-409.7,93.6c-0.1-0.1-0.1-0.1,0-0.2V93.6z"/>
			</g>
		</g>
	</g>
	<g id="bell">
		<circle class="st5" cx="-334.3" cy="170.8" r="22.5"/>
		<path class="st5" d="M-333.3,175.8c-169.3,0-306.5,137.2-306.5,306.5h613C-26.8,313-164,175.8-333.3,175.8z"/>
	</g>
	<polyline class="st6" points="-425.9,16 -454.8,8.9 -462,7.4 -487.2,42.5 -481.2,57.8 -453,70.3 -428.8,16.8 	"/>
	<path class="st7" d="M-451.4,8.9c-8.5,4-19.4,16.5-21.1,20.8s-3.3,31-5.1,30.6L-582,34.8l-189.8-63.5l41-67L-453.9,7.4"/>
</g>
<g id="waiter_x5F_1">
	<g id="waiter_x5F_arm">
		<g id="waiter_x5F_hand">
			<g>
				<path class="st3" d="M-285.9,1115c3.6-4.8,9-12.4,7.7-18.5c-1.2-5.6-5-16.3-1.3-22c7.7-11.7,19.4,19.9,19,25.8l-11.6,53.6
					l-44.7-3.5C-308.6,1138.8-296.3,1128.8-285.9,1115z"/>
				<g>
					<path class="st4" d="M-275.7,1073.8c-3.3,5.9,1.1,16.3,2.7,21.8c1.7,6-3.2,13.9-6.5,19c-9.3,14.3-20.8,25-28.1,36.9l-9.5-0.7
						c8.1-11.6,20.4-21.6,30.8-35.5c3.6-4.8,9-12.5,7.7-18.5c-1.2-5.6-5-16.3-1.3-22c1.6-2.4,3.3-2.9,5.1-2.9
						C-275.6,1072.5-275.4,1073.3-275.7,1073.8z"/>
				</g>
				<path class="st3" d="M-293.5,1156.4c6.5-10.8,13.4-21.7,20-32.8c3.2-5.3,8.8-12.3,10.6-18.2c1.4-4.7-0.1-13.9-0.7-19.3
					c-0.5-5.2-2.2-15.2-0.1-20c2.3-5.2,10.5-5.4,14.7,1.9c3,5.1,5.8,17.7,6.9,23.5c1.3,6.3,1.2,15.4,2.7,21.6l-44.9,55.2
					C-284.2,1167-294.1,1157.5-293.5,1156.4z"/>
				<path class="st4" d="M-293.5,1156.3c6.5-10.8,13.4-21.7,20-32.8c3.2-5.3,8.8-12.3,10.6-18.2c1.4-4.7-0.1-13.9-0.7-19.3
					c-0.5-5.2-2.2-15.2-0.1-20c1.5-3.3,5.3-4.6,9-3.2c-1.4,0.6-2.6,1.7-3.2,3.2c-2.1,4.9-0.4,14.9,0.1,20c0.5,5.3,2.1,14.6,0.7,19.3
					c-1.8,5.9-7.4,12.9-10.6,18.2c-6.6,11-13.5,21.9-20,32.8c-0.4,0.7,3.6,4.9,6.4,8.1l-3,3.7
					C-284.2,1167-294.2,1157.4-293.5,1156.3z"/>
				<path class="st3" d="M-520.6,1216.9c11.7,14.1,34.3,25.4,67.5,30.1c4.2-8.9,27-46.8,32.4-48c6.1-1.3,37-9.6,46.2-9.1
					c14.6,0.7,91-11.1,96.5-12.2c5.9-1.2,12.7,0,18.2-1.8c7.8-7.3,15.6-15.2,21.7-25c6.2-10,15.8-30.1,15.8-30.1
					c0.9-2.7,10.4-22.5,10.4-27c0-8.9-1.3-16.6-9.2-14.6c-7.7,1.9-13.5,22.9-18.5,28.5c-12.1,13.7-24.4,19.1-39,37.6
					c-15.3-8.3-28.8-6.8-50-11c-15-3-46.7-0.4-62.8,2.7c4.1-4.9,14.2-12.5,18.5-17.3c9.2-10.3,19.4-19.4,23.5-33.1
					c2.5-8.4,5.7-29.4-9.7-24.4c-10.7,3.5-7.3,11.4-27,25c-46.9,32.2-76.2,29.1-90.2,47.8c-7.7,10.2-16.2,36.1-24.4,45.8
					C-510.2,1191.8-515.2,1206.9-520.6,1216.9z M-226.1,1116.5c0.1-0.3,0.2-0.7,0.4-1.2C-225.7,1115.7-225.8,1116.1-226.1,1116.5z"
					/>
				<path class="st4" d="M-255.8,1126.2c2.8-3.7,18.1-22,18.8-23.1c1-1.8,8.2-17.6,11.3-21.1c2.2-2.4,5.8-4.4,9.2-2.7l-0.8-0.1
					c-7.8,0.9-10.4,16.1-13,22c-2,4.5-15.2,22.4-19.3,26.6c-3.6,3.7-13,17.9-16.3,23.9c-2.8-3.1-5-3.9-8.8-4.9
					C-267.1,1142-261.1,1133.3-255.8,1126.2z"/>
			</g>
		</g>
		<polyline class="st6" points="-508.3,1187.3 -520.6,1216.9 -523.3,1224.3 -475.3,1252.3 -453.1,1246.9 -433.3,1218.3 
			-507.5,1190.3 		"/>
		<path class="st7" d="M-520.3,1213.3c5,9,22,21,28,23s43.7,5.1,43,7l-44,107l-58,127l-77-37.2l-12-10.8l117.7-213.4"/>
	</g>
	<g id="plate">
		<path class="st8" d="M-619.1,1052.3v13.5c0,0,79.2,0,141.5,13.5h332v-0.4c62-13.1,139.8-13.1,139.8-13.1H-4v-13.5H-619.1z"/>
	</g>
</g>
<g id="chef">
	<g id="chef_x5F_arm">
		<g id="pan_x5F_object">
			<g id="pan_x5F_group">
				
					<linearGradient id="SVGID_1_" gradientUnits="userSpaceOnUse" x1="1563.0464" y1="-398.9514" x2="1563.0464" y2="-358.2164" gradientTransform="matrix(0.9913 -0.1313 -7.321040e-02 -0.5526 58.9404 809.3318)">
					<stop  offset="0" style="stop-color:#231F20"/>
					<stop  offset="0.1898" style="stop-color:#D5D5D6"/>
					<stop  offset="0.4953" style="stop-color:#E6E7E8"/>
					<stop  offset="1" style="stop-color:#808285"/>
				</linearGradient>
				<polygon class="st9" points="1662.6,821.2 1612.6,827.9 1609.6,805.4 1659.6,798.7 				"/>
				
					<linearGradient id="SVGID_00000053509101573234556050000017666954613074788496_" gradientUnits="userSpaceOnUse" x1="1079.7" y1="235.2068" x2="1626.5" y2="235.2068" gradientTransform="matrix(1 0 0 -0.9964 0 1077.5352)">
					<stop  offset="0" style="stop-color:#515254"/>
					<stop  offset="1" style="stop-color:#000000"/>
				</linearGradient>
				<path style="fill:url(#SVGID_00000053509101573234556050000017666954613074788496_);" d="M1514.9,899h-323.6
					c-61.6,0-111.6-50-111.6-111.6l0,0h546.8l0,0C1626.5,849.1,1576.5,899,1514.9,899z"/>
				
					<linearGradient id="SVGID_00000090974522922670900080000010461025260344469664_" gradientUnits="userSpaceOnUse" x1="1849.6499" y1="346.5483" x2="1849.6499" y2="252.2724" gradientTransform="matrix(1 0 0 -1 0 1080)">
					<stop  offset="6.967749e-02" style="stop-color:#231F20"/>
					<stop  offset="0.3849" style="stop-color:#4A494B"/>
					<stop  offset="1" style="stop-color:#000000"/>
				</linearGradient>
				<path style="fill:url(#SVGID_00000090974522922670900080000010461025260344469664_);" d="M1659.7,790.8
					c138.7-40.1,260.5-53.1,359.6-57.3c13.8-0.6,25.2,10.4,25.2,24.2l0,0c0,13.4-10.9,24.3-24.3,24.2c-46.8-0.1-162.3,5-357.2,45.7
					c-4.2,0.9-8.2-2.3-8.2-6.6v-23.7C1654.8,794.4,1656.8,791.7,1659.7,790.8z"/>
				
					<linearGradient id="SVGID_00000029760247170560518820000014999161470399834269_" gradientUnits="userSpaceOnUse" x1="1079.7" y1="295.0248" x2="1626.5" y2="295.0248" gradientTransform="matrix(1 0 0 -1 0 1080)">
					<stop  offset="0" style="stop-color:#000000"/>
					<stop  offset="0.468" style="stop-color:#6D6E71"/>
					<stop  offset="1" style="stop-color:#000000"/>
				</linearGradient>
				
					<rect x="1079.7" y="782.5" style="fill:url(#SVGID_00000029760247170560518820000014999161470399834269_);" width="546.8" height="5"/>
			</g>
		</g>
		<path class="st13" d="M2538,811.3l-371.5-95.7c-16.7-4.3-32.5-11.5-46.7-21.3l-17.4-12c-7.3-4.5-24.2,8.1-24.2,8.1l-17.6,67.4
			c0,0-6.9,27.3,11.4,27.2l0,0c5.8-0.8,11.7-0.2,17.1,1.9l417.6,158.7L2538,811.3z"/>
	</g>
	<g id="chef_x5F_hand">
		<g>
			<path class="st4" d="M1865,712.7c-9.6-9.8-9.2-21.2-4.9-26.4c3.4-4.1,6.6,3.8,20.3,9.9c13.7,6.1,40.5,12.2,40.5,12.2l-21.1,21.2
				C1899.7,729.7,1876.4,724.5,1865,712.7z"/>
			<path class="st3" d="M2088.2,696.2c0,0-26.5-14.6-53.1-15.7c-26.6-1.1-68.9,16.2-91.4,18.4s-60.1,13.3-66.7,18.8
				c-6.6,5.4-18.7,7-29.5,13.5c-10.7,6.4-21.3,5.4-28.2,22.1c-6.8,16.7-13.8,29.4-16.1,41.5c-2.2,12.1-6.3,29.9-1.8,32.3
				c4.4,2.4,15.5-0.8,21.6-29.8c5.4-25.5,15.5-28,22.3-33.9c6.7-5.9,20.7-12.1,20.7-12.1s-26.3,29.9-26.4,36.8
				c-0.1,7,26,34.4,30.6,36.3c4.6,1.9,21.6-6.8,21.6-6.8s7.8,3.6,16.9,4.1c9,0.4,14-3.8,14-3.8s11.4,4.4,22.6-1.6
				c3.2-1.7,3.2-5.7,4.4-7.4c1.2-1.7,12.8-16.7,12.8-16.7s26.3-12.3,52.1-21.7c26.7-9.8,27.3-21.6,27.3-21.6s2.3-2.1,14.2,6
				c11.9,8.1,20.3,12.9,20.3,12.9c9.2-2.9,14.6-8.5,21.9-25.1C2109.8,716.4,2088.2,696.2,2088.2,696.2z"/>
			<path class="st4" d="M1940.4,804.2c0-3.6,13.7-13.3,10.8-19.1c-1.2-1.4-5.9-7.7-8-7c0,0-6.1,8.3-8.1,13.8
				c-2.1,5.7-5.4,11.3-4.9,16.5c0.8,6.2,8.4,11.4,14,8.3c2.3-1.3,4.4-1.4,10.8-7.2c4.7-4.3,11.6-13.1,13.1-17.4
				c1.1-3.1-5.9-2.7-10.9-1.6C1955.1,790.9,1943.1,801.5,1940.4,804.2z"/>
			<path class="st4" d="M1923.5,770.2c-1-2.3-14.6,15.9-16,18c-3.5,5.2-8.8,12-10.6,18.4c-1.9,6.6,2.3,13.7,9.5,14.7
				c5.3,0.8,11.8,0,16.4-3.5c-8.7-1.8-12.6-4.6-11.3-14C1912.8,794,1923.5,770.2,1923.5,770.2z"/>
			<path class="st4" d="M1872,773.7c-6.2,4.5-7.8,7.8-13.2,13.3c-2.5,2.6-5.3,4.5-4.3,7.9c0.8,2.9,5.3,7.4,7.4,9.7
				c6.7,7.5,11.5,17,13.3,18c1.9,1.1,10.1-0.3,13.9-4.2c-4.4-0.7-9.4-4.4-11-7.7c-1.9-3.8-1.1-8.1-0.4-12.1
				c1.2-7.6,5.1-15.5,8.4-22.8c3.4-7.4,12.6-20.7,12.6-20.7C1890.1,757.3,1876.4,770.5,1872,773.7z"/>
			<g>
				<path class="st4" d="M1944.6,783.2c0-0.3,0-0.6,0-0.9l-0.1-0.1L1944.6,783.2z"/>
				<path class="st4" d="M2033.9,754.4c-3.3,2.5-46.6,27.2-82.4,25c-2.6-0.2-8.2-1.4-8.2-1.4c10,21.1,32.5,11.8,42.6,8.5
					c14.6-4.9,35.1-14.6,47.2-24.4c3.8-3.1,12.1-11.9,10-17.2C2041.4,748.6,2036.7,752.2,2033.9,754.4z"/>
			</g>
		</g>
	</g>
</g>
</svg>
